# xmcd
#
# Track frame offsets: 
#        150
#        21898
#        42705
#        61085
#        93737
#        116452
#        137234
#        161503
#        181374
#        205567
#        228557
#        257099
#
# Disc length: 3641 seconds
#
# Revision: 7
# Processed by: cddbd v1.5.1PL2 Copyright (c) Steve Scherf et al.
# Submitted via: ExactAudioCopy v0.95b3
#
DISCID=a50e370c
DTITLE=Eric Clapton - Back Home
DYEAR=2005
DGENRE=Blues
TTITLE0=So Tired
TTITLE1=Say What You Will
TTITLE2=I'm Going Left
TTITLE3=Love Don't Love Nobody
TTITLE4=Revolution
TTITLE5=Love Comes To Everyone
TTITLE6=Lost And Found
TTITLE7=Piece Of My Heart
TTITLE8=One Day
TTITLE9=One Track Mind
TTITLE10=Run Home To Me
TTITLE11=Back Home
EXTD=
EXTT0=
EXTT1=
EXTT2=
EXTT3=
EXTT4=
EXTT5=
EXTT6=
EXTT7=
EXTT8=
EXTT9=
EXTT10=
EXTT11=
PLAYORDER=
